<svg xmlns:xlink="http://www.w3.org/1999/xlink" xmlns="http://www.w3.org/2000/svg" width="200" height="40" class="UserLogo variant-- " viewBox="0 0 200 40"><title>AsosMarketplace logo</title><g fill="none" fill-rule="evenodd"><path fill="var(--userLogoColor, #000)" fill-rule="nonzero" d="M92.34 26.4c-.52.4-1.16.65-1.83.67-.9.1-1.82-.06-2.65-.44a2.96 2.96 0 01-1.44-1.65c-.11-.26-.14-.55-.23-.82-.09-.19-.34-.12-.5-.15-.9 0-1.81-.03-2.72-.02.45-1.4.57-2.88.37-4.33a5.5 5.5 0 002.5 1.66c1.56.6 3.24.73 4.84 1.2.62.16 1.2.44 1.72.82.35.26.58.64.66 1.06.1.75-.17 1.5-.73 2m-13.67-2.14a4.6 4.6 0 01-1.98 1.9 5.2 5.2 0 01-3.1.44 4.57 4.57 0 01-2.37-1.12 4.8 4.8 0 01-1.38-2.2 7.64 7.64 0 01-.28-3.2c.11-1.2.6-2.33 1.41-3.23.76-.8 1.78-1.3 2.88-1.42a4.7 4.7 0 014.84 2.45c.47.9.72 1.9.74 2.92.06 1.2-.2 2.39-.74 3.46M65.5 21.22a7.86 7.86 0 00-2.84-1.54c-1.1-.36-2.24-.5-3.35-.8a6.72 6.72 0 01-1.7-.65c-.4-.22-.72-.58-.89-1.01-.18-.52-.1-1.1.2-1.56.28-.38.7-.66 1.16-.78.62-.16 1.26-.2 1.9-.1a2.83 2.83 0 012.56 2.3c0 .15.1.31.27.31 1.14 0 2.27.03 3.4.03-.5 1.2-.75 2.5-.72 3.8m-2.86 4.63a2.3 2.3 0 01-1.15.98c-.58.22-1.2.3-1.83.26a4 4 0 01-2.6-.9 3.27 3.27 0 01-.98-1.87c0-.14-.1-.29-.26-.28-1.1-.04-2.16-.02-3.24-.06v-5.55c.11.37.28.72.48 1.04.43.61 1 1.1 1.68 1.43 1.22.65 2.59.93 3.94 1.2 1.03.16 2.04.45 3 .87.57.25 1.01.72 1.21 1.3.1.54.02 1.1-.25 1.58M48 24.4a4.29 4.29 0 01-2.16 1.9 5.1 5.1 0 01-3.69.08 4.75 4.75 0 01-2.44-2.1 6.58 6.58 0 01-.79-3.84 5.93 5.93 0 011.57-3.64 4.52 4.52 0 012.56-1.33 5.48 5.48 0 013.2.45 4.18 4.18 0 011.94 2c.4.92.6 1.9.6 2.91a6.96 6.96 0 01-.76 3.54m47.86-2.98a7.42 7.42 0 00-2.93-1.69c-1.45-.5-3-.61-4.44-1.15a3.24 3.24 0 01-1.28-.78 1.77 1.77 0 01-.28-1.88c.2-.39.51-.7.9-.87a4.1 4.1 0 012.05-.29c.72.03 1.4.3 1.95.77.44.42.74.97.85 1.57.02.16.13.32.3.3l3.39.03c.08.01.15-.01.2-.07a.23.23 0 00.07-.21 5.55 5.55 0 00-3.52-4.51 9.37 9.37 0 00-2.98-.6H89c-1.26.02-2.5.28-3.66.76a4.6 4.6 0 00-2.08 1.75 4.82 4.82 0 00-.66 2.52 9.12 9.12 0 00-7.7-5.03h-.95a8.9 8.9 0 00-3.61 1 9.42 9.42 0 00-3.9 3.9 6.24 6.24 0 00-.73-1.98c-.49-.83-1.2-1.51-2.06-1.97a8.6 8.6 0 00-3.66-.92h-1.2c-.93.03-1.84.17-2.72.42a5.36 5.36 0 00-2.7 1.65 4.38 4.38 0 00-.8 1.6v-2.85a.36.36 0 00-.1-.3.4.4 0 00-.3-.08h-3.05a.28.28 0 00-.28.28v.82a.16.16 0 01-.08.16c-.1-.05-.2-.1-.29-.17a8.27 8.27 0 00-4.18-1.54h-.8a8.77 8.77 0 00-5.97 2.74A8.42 8.42 0 0035 20.5v1a9 9 0 00.75 3.21 9.34 9.34 0 003.41 3.94 8.56 8.56 0 004.76 1.34c1.7-.01 3.33-.6 4.64-1.65.08-.05.2-.18.27-.06.04.32 0 .64 0 .96 0 .15.13.27.28.28h3.18a.29.29 0 00.27-.31v-2.8c.3.66.73 1.27 1.26 1.78a6.54 6.54 0 003.33 1.58c1.02.18 2.05.25 3.09.2 1.1-.04 2.17-.23 3.21-.57.84-.27 1.6-.7 2.26-1.28a4.26 4.26 0 001.25-2.13 8.8 8.8 0 005.43 3.75c1.98.47 4.07.26 5.92-.59a9.28 9.28 0 004.06-3.8c.24.98.73 1.9 1.42 2.65a5.74 5.74 0 002.2 1.41c1.44.48 2.96.67 4.47.56a11 11 0 003.64-.73c.9-.35 1.7-.93 2.3-1.68.5-.69.8-1.5.85-2.34v-.79a4.75 4.75 0 00-1.39-3.02"></path><path fill="var(--userLogoColor, #000)" d="M128.46 21.86v6.61h3.22v1.38c-.33.1-3.72.13-4.52.04-.06-.4-.09-7.07-.02-7.98.41-.1.84-.03 1.32-.05zm17.15 1.05c.28.46.48.94.52 1.5h-1.26c-.15-.1-.1-.28-.15-.42-.18-.5-.51-.81-1.05-.87-.5-.05-.91.1-1.23.51-.25.33-.39.7-.45 1.09-.11.8-.12 1.61.1 2.4.07.29.2.56.39.78.6.7 1.6.61 2.05-.17.13-.24.23-.5.27-.8.45-.04.87-.02 1.34-.01-.16 1.03-.51 1.92-1.34 2.55-.93.7-2.37.59-3.25-.23a3.37 3.37 0 01-.93-1.52 6.51 6.51 0 010-3.82c.15-.51.4-.98.77-1.38a2.65 2.65 0 014.22.4zm-8.74-.9l2.22 7.88c-.45.07-.88.04-1.33.02l-.45-1.53h-2.45l-.46 1.52h-1.3c.34-1.33.75-2.63 1.14-3.93L135.4 22zm15.98-.02v1.32h-3.38c-.08.58-.03 1.12-.04 1.7h3.2c.07.49.03.95.03 1.45h-3.2v2.1h3.48c.1.46.03.88.05 1.33h-4.73c-.1-.33-.13-6.77-.04-7.9h4.63zm-32.2.05c.13-.1.28-.06.4-.06h2.3c1.32.01 2.07.77 2.09 2.08 0 .57-.04 1.13-.3 1.66-.36.77-.94 1.2-1.83 1.19h-1.35v2.88h-1.3zm15.4 1.65l-.86 3.09h1.78l-.85-3.08h-.07zm-12.5-.42c-.5-.1-1.02-.05-1.55-.06v2.35h1.45c.54-.03.8-.29.84-.8.1-.85-.1-1.32-.63-1.47l-.1-.02zm40.52-11.22v1.52h-1.98v6.58c-.45.08-.88.01-1.35.04v-6.6h-1.9v-1.5c.36-.1 4.39-.12 5.23-.04zm-37.32-.02v8.14h-1.2V13.8h-.08l-1.14 6.35c-.46.07-.9.03-1.36.03l-1.12-6.2-.08.01v6.16h-1.23v-8.11h1.88l1.29 6.12c.43-2.02.71-4.08 1.06-6.13h1.98zm11.25.31h.76c.42.01.83-.02 1.25.05a2 2 0 011.75 1.77c.12 1.01-.14 1.6-1.04 2.24.68.32.83.9.83 1.56l.01.62c0 .53-.01 1.06.4 1.54-.55.13-1.01-.05-1.49-.04-.2-.5-.23-.99-.25-1.49-.01-.27 0-.55-.04-.82-.06-.47-.28-.68-.75-.7h-1.64v3.08h-1.33v-7.8h2.3zm-5.51-.09c.76 2.6 1.48 5.24 2.24 7.92h-1.33l-.46-1.54h-2.2c-.08 0-.17-.02-.27.06l-.43 1.47h-1.34l2.34-7.9zm17.46-.21l-2.66 3.34 2.77 4.78h-1.78l-1.99-3.52c-.23.25-.4.5-.59.8v2.72h-1.42v-8.12h1.42v3.22l.08.03 2.4-3.25h1.77zm6.84 0v1.54h-3.55a9.03 9.03 0 000 1.56h3.21c.05.52.04.96.01 1.43-.36.1-.72.04-1.08.05h-2.14v1.99H157v1.55h-5v-8.12h4.78zm-25.08 1.77c-.3 1.14-.6 2.17-.89 3.23h1.78l-.89-3.23zm7.88-.32c-.6-.04-1.2 0-1.8 0v2.12h1.52c.2 0 .38-.03.56-.09.3-.1.49-.3.54-.62a1.9 1.9 0 00.01-.56c-.07-.5-.34-.81-.83-.85z"></path><path fill="#FE00C8" d="M117.1 27.63v2.02c-.45.06-15.92.09-16.81.03-.07-.33-.03-.67-.03-1v-1.05h16.85z"></path></g></svg>