<svg xmlns:xlink="http://www.w3.org/1999/xlink" xmlns="http://www.w3.org/2000/svg" width="200" height="40" class="UserLogo variant-- " viewBox="0 0 200 40"><title>AxelSpringer logo</title><g fill="none"><path fill="var(--userLogoColor, #000)" d="M131.02 17.145a5.19 5.19 0 013.394 1.248l.469-.903h2.503v9.565c0 3.299-2.11 5.375-5.514 5.472l-.251.004c-3.055 0-5.187-1.538-5.683-4.09h3.572c.256.718 1.173 1.104 2.076 1.104 1.242 0 2.242-.786 2.242-2.07v-.316a5.21 5.21 0 01-2.525.8l-.282.007c-3.083 0-5.38-2.297-5.38-5.407 0-3.07 2.29-5.414 5.38-5.414zm-39.158-.007c3.29 0 5.641 2.38 5.641 5.731 0 3.274-2.243 5.633-5.413 5.74l-.228.005a5.022 5.022 0 01-2.39-.585l-.23-.132v4.234h-3.663V17.49h2.518l.462.855a5 5 0 013.303-1.207zm52.931.007c3.47 0 5.87 2.476 5.87 5.627-.006.212-.02.43-.042.65l-.042.33h-7.986c.241 1.234 1.028 1.869 2.2 1.869.862 0 1.586-.38 1.945-1.007h3.69c-.735 2.376-2.793 3.893-5.375 3.988l-.26.005c-3.359 0-5.841-2.455-5.841-5.738 0-3.297 2.469-5.724 5.841-5.724zm-112.152.014c1.27 0 2.4.42 3.29 1.158l.38-.834h2.758V28.24h-2.862l-.317-.758c-.883.717-2 1.124-3.249 1.124-3.29 0-5.641-2.4-5.641-5.745 0-3.331 2.352-5.703 5.641-5.703zm24.821-.014c3.469 0 5.869 2.476 5.869 5.627 0 .212-.012.43-.035.65l-.04.33h-7.987c.241 1.234 1.028 1.869 2.193 1.869.869 0 1.586-.38 1.945-1.007h3.69c-.735 2.376-2.793 3.893-5.375 3.988l-.26.005c-3.359 0-5.841-2.455-5.841-5.738 0-3.297 2.469-5.724 5.841-5.724zm21.772-.007c2.738 0 4.518 1.455 4.552 3.634h-3.469c0-.69-.462-1.006-1.13-1.006l-.134.005c-.52.041-.86.33-.86.788 0 .613.828.758 1.848.938 1.697.303 3.959.655 3.959 3.386 0 2.248-1.897 3.717-4.759 3.717-2.93 0-4.71-1.545-4.744-3.876h3.565l.006.143c.063.688.583 1.009 1.242 1.009l.115-.004c.495-.037.94-.312.94-.83 0-.621-.813-.794-1.848-.966-1.662-.276-3.876-.78-3.876-3.386 0-2.159 1.835-3.552 4.593-3.552zm26.842.303v3.4h-1.435c-1.31 0-1.862.573-1.862 1.945v5.47h-3.703v-10.76h2.483l.579 1.194.154-.17c.73-.76 1.614-1.079 2.811-1.079h.973zm49.276 1.242c.758-.876 1.682-1.249 2.965-1.249h.98v3.4h-1.442c-1.31 0-1.862.58-1.862 1.945v5.47h-3.703v-10.76h2.482l.58 1.194zm-35.38-1.51c2.504 0 4.145 1.779 4.138 4.517v6.558h-3.703V22.2c0-1.255-.476-1.876-1.407-1.876l-.155.005c-1.062.07-1.666.864-1.666 2.174v5.745h-3.703V17.49h2.6l.51 1.11.155-.164c.795-.797 1.925-1.264 3.231-1.264zm-75.558.317l1.558 2.71 1.621-2.71h4.035l-3.331 5.082 3.572 5.676h-4.138l-1.772-3.186-1.8 3.186h-4.097l3.572-5.579-3.31-5.18h4.09zm24.255-3.883v14.641h-3.703V13.607h3.703zM111.2 17.49v10.758h-3.703V17.49h3.703zm-19.828 2.917c-1.386 0-2.406 1.048-2.406 2.462 0 1.414 1.02 2.462 2.406 2.462 1.38 0 2.407-1.048 2.407-2.462 0-1.414-1.02-2.462-2.407-2.462zm-58.234.014c-1.393 0-2.407 1.048-2.407 2.448 0 1.407 1.02 2.455 2.407 2.455 1.386 0 2.407-1.048 2.407-2.455 0-1.393-1.02-2.448-2.407-2.448zm98.49-.207c-1.331 0-2.297.986-2.297 2.345 0 1.372.952 2.358 2.297 2.358 1.33 0 2.29-.986 2.29-2.358 0-1.359-.952-2.345-2.29-2.345zm-74.166-.173c-1.083 0-1.828.587-2.131 1.656h4.352c-.305-1.013-1.014-1.586-2.027-1.65l-.194-.006zm87.324 0c-1.076 0-1.827.587-2.13 1.656h4.35c-.304-1.013-1.012-1.586-2.026-1.65l-.194-.006zM111.172 13v3.145h-3.648V13h3.648z"></path><path fill="#0000FF" d="M161.455 28.234H173.6V25.51h-12.145v1.366z"></path></g></svg>