<svg xmlns:xlink="http://www.w3.org/1999/xlink" xmlns="http://www.w3.org/2000/svg" width="200" height="40" class="UserLogo variant-- " viewBox="0 0 200 40"><g fill="none" fill-rule="evenodd"><title>Booking.com logo</title><path fill="#273B7D" fill-rule="nonzero" d="M84.88 11.71a2.19 2.19 0 112.18 2.2c-1.2 0-2.18-.99-2.18-2.2"></path><path fill="#499FDD" fill-rule="nonzero" d="M119.34 26.28a2.19 2.19 0 114.36 0c0 1.21-.98 2.2-2.18 2.2-1.2 0-2.18-.99-2.18-2.2"></path><path fill="#273B7D" fill-rule="nonzero" d="M49.04 25.34c-1.88 0-3.19-1.5-3.19-3.63 0-2.14 1.3-3.63 3.19-3.63 1.9 0 3.21 1.5 3.21 3.63 0 2.17-1.3 3.63-3.21 3.63zm0-10.45a6.62 6.62 0 00-6.87 6.82 6.62 6.62 0 006.87 6.82c4 0 6.9-2.87 6.9-6.82s-2.9-6.82-6.9-6.82zm31.61 7.16c-.15-.3-.33-.54-.52-.73l-.12-.13.13-.12c.18-.2.37-.43.55-.69l3.5-5.22h-4.26l-2.63 4.08c-.15.22-.45.33-.9.33h-.6v-7.72c0-1.55-.97-1.76-2-1.76H72v18.24h3.78v-5.47h.36c.43 0 .72.05.85.28l2.09 3.94c.58 1.06 1.16 1.25 2.25 1.25h2.9l-2.16-3.57-1.43-2.71m18.35-7.19c-1.92 0-3.15.85-3.84 1.58l-.23.23-.08-.32c-.2-.77-.88-1.2-1.9-1.2h-1.7l.02 13.17H95v-6.07c0-.6.07-1.1.23-1.58a3.08 3.08 0 013.04-2.3c1.17 0 1.63.62 1.63 2.21v5.74c0 1.36.63 2 2 2h1.78v-8.37c0-3.33-1.63-5.1-4.7-5.1m-11.87.31h-1.78l.01 10.18v2.98h3.73l.02-11.16c0-1.35-.65-2-1.98-2M63.77 25.34c-1.88 0-3.19-1.5-3.19-3.63 0-2.14 1.31-3.63 3.2-3.63 1.88 0 3.2 1.5 3.2 3.63 0 2.17-1.29 3.63-3.2 3.63zm0-10.45a6.62 6.62 0 00-6.87 6.82 6.62 6.62 0 006.87 6.82c4 0 6.9-2.87 6.9-6.82s-2.9-6.82-6.9-6.82z"></path><path fill="#499FDD" fill-rule="nonzero" d="M144.19 25.34c-1.88 0-3.2-1.5-3.2-3.63 0-2.14 1.32-3.63 3.2-3.63 1.89 0 3.21 1.5 3.21 3.63 0 2.17-1.3 3.63-3.21 3.63zm0-10.45a6.62 6.62 0 00-6.87 6.82 6.62 6.62 0 006.87 6.82c3.99 0 6.9-2.87 6.9-6.82s-2.91-6.82-6.9-6.82z"></path><path fill="#273B7D" fill-rule="nonzero" d="M111.6 24.76c-2.06 0-2.79-1.8-2.79-3.47 0-.74.19-3.15 2.58-3.15 1.2 0 2.78.34 2.78 3.27 0 2.77-1.4 3.35-2.58 3.35zm4.52-9.64c-.71 0-1.26.29-1.53.8l-.1.2-.18-.14a5.1 5.1 0 00-3.45-1.15c-3.51 0-5.87 2.64-5.87 6.56 0 3.92 2.44 6.66 5.94 6.66 1.19 0 2.13-.28 2.88-.85l.3-.22v.37c0 1.76-1.15 2.73-3.2 2.73-1 0-1.92-.25-2.53-.47-.8-.24-1.26-.04-1.58.76l-.3.74-.42 1.07.26.14c1.32.7 3.03 1.12 4.59 1.12 3.2 0 6.92-1.64 6.92-6.24l.01-12.08h-1.74zM35.07 25.19H32v-3.66c0-.78.3-1.19.98-1.28h2.08c1.48 0 2.44.94 2.45 2.46 0 1.55-.94 2.48-2.45 2.48zM32 15.33v-.96c0-.84.36-1.24 1.14-1.3h1.56c1.34 0 2.15.81 2.15 2.15 0 1.03-.55 2.22-2.1 2.22H32v-2.1zm6.96 3.65l-.55-.31.48-.42a4.41 4.41 0 001.5-3.43c0-2.87-2.22-4.72-5.66-4.72h-4.37a1.92 1.92 0 00-1.85 1.9v16.26h6.3c3.82 0 6.28-2.08 6.28-5.3 0-1.74-.8-3.23-2.13-3.98z"></path><path fill="#499FDD" fill-rule="nonzero" d="M167.84 14.9c-1.56 0-3.06.73-4.03 1.95l-.27.35-.21-.39c-.7-1.26-1.9-1.9-3.56-1.9-1.74 0-2.9.96-3.45 1.54l-.36.39-.13-.5c-.2-.74-.85-1.14-1.83-1.14h-1.58l-.02 13.12h3.6v-5.8c0-.5.06-1 .19-1.53.34-1.4 1.28-2.9 2.86-2.75.97.1 1.45.85 1.45 2.3v7.78h3.6v-5.8c0-.63.07-1.1.2-1.58.3-1.33 1.28-2.7 2.8-2.7 1.1 0 1.51.62 1.51 2.3v5.86c0 1.33.6 1.92 1.92 1.92h1.69v-8.38c0-3.34-1.47-5.04-4.37-5.04m-32.61 8.86c0 .02-1.55 1.64-3.58 1.64-1.85 0-3.72-1.13-3.72-3.67 0-2.18 1.45-3.71 3.53-3.71.67 0 1.43.24 1.55.64l.02.07c.28.92 1.11.97 1.28.97h1.96V18c0-2.27-2.88-3.09-4.81-3.09-4.15 0-7.15 2.89-7.15 6.86s2.97 6.86 7.07 6.86c3.56 0 5.5-2.34 5.5-2.37l.11-.12-1.55-2.58-.2.21"></path></g><title>Booking logo</title></svg>