<svg clip-rule="evenodd" fill-rule="evenodd" stroke-linejoin="round" stroke-miterlimit="1.41421" viewBox="0 0 560 400" xmlns="http://www.w3.org/2000/svg"><g transform="matrix(1.16401 0 0 1.16401 47.4807 25.431)"><path d="m52.9 142.3c4.6 4.6 8.3 12.1 6.2 16.6-5.7 12-48.5 33-52.1 29.3-3.6-3.6 17.4-46.4 29.3-52.1 4.4-2.1 12 1.6 16.6 6.2z" fill="#ff8200"/><path d="m75.5 137.3c-.7-2.8-2.6-5.5-5.5-5.9-5.2-.6-13.4 8.6-12.8 10.8s12.2 6 16.5 2.9c2.2-1.6 2.6-5.1 1.8-7.8zm-16.1-25.5c3.9 1 7.8 3.7 8.2 7.7.8 7.3-12 18.8-15.1 17.9-3.1-.8-8.4-17-4.1-23.1 2.3-3.1 7.2-3.5 11-2.5z" fill="#43b02a"/></g><path d="m145.2 150.5-3.8-.6c-3.6-.5-5.8-1.7-5.8-3.9 0-2.5 2.7-4 6.8-4 2.9 0 5.2 1.1 7.4 2.2l.4.2c.5.3 1.1.4 1.6.4 1.3 0 2.6-.7 3.2-1.9l.3-.6c.5-.9.6-1.9.3-2.9s-1-1.8-1.9-2.2c-3.3-1.6-6.8-3.1-11.5-3.1-9.7 0-16 4.7-16 12.3 0 6.2 4.5 10.1 12.9 11.3l3.9.5c4.1.6 6.1 1.8 6.1 3.7 0 1.8-1 4.1-7.3 4.1-3.5 0-7-.9-9.9-2.7-.6-.4-1.2-.6-1.9-.6-1.3 0-2.5.7-3.1 1.7l-.2.3c-.5.9-.7 1.9-.4 2.9s.9 1.8 1.8 2.3c5 2.8 10.8 3.8 13.8 3.8 10.1 0 16.4-4.4 16.4-12.3.1-6.1-4.4-9.7-13.1-10.9zm117.9 13.6c-.7-.8-1.8-1.3-2.9-1.3-.7 0-1.5.2-2.1.6-2.1 1.3-4.3 2-6.5 2-6.1 0-10.5-4.8-10.5-11.4s4.4-11.4 10.5-11.4c2.3 0 4.4.6 6.4 1.9 1.5 1 3.7.8 5-.6l.3-.3c.9-.9 1.3-2.2 1.1-3.4-.1-1.2-.8-2.3-1.8-3-3-2-6.7-3-10.7-3-11.7 0-19.9 8.2-19.9 19.9s8.2 19.9 19.9 19.9c4.1 0 7.8-1.1 10.8-3.1 1-.7 1.7-1.8 1.8-3 .2-1.2-.2-2.4-1.1-3.4zm-189.3-43.4c-3 0-5.4 2.4-5.4 5.5s2.3 5.4 5.4 5.4 5.5-2.4 5.5-5.4c0-3.1-2.4-5.5-5.5-5.5zm1.6 13.8h-3.2c-1.6 0-2.8 1.3-2.8 2.8v32.8c0 1.6 1.3 2.8 2.8 2.8h3.2c1.6 0 2.8-1.3 2.8-2.8v-32.8c.1-1.6-1.2-2.8-2.8-2.8zm105.2 30.8c-3.6 0-7.8-2.8-7.8-7.8v-14.8h7.8c1.6 0 2.8-1.3 2.8-2.8v-2.6c0-1.6-1.3-2.8-2.8-2.8h-7.8v-8.5c0-1.6-1.3-2.8-2.8-2.8h-3.4c-1.6 0-2.8 1.3-2.8 2.8v31c0 8.9 6.8 16.8 16.2 16.8.9 0 1.8-.4 2.5-1 .7-.7 1-1.6 1-2.5v-2.2c0-1.5-1.3-2.8-2.9-2.8zm-77.6-31.1c-11.4 0-17.7 9.1-17.7 16.9v19.1c0 1.6 1.3 2.8 2.8 2.8h3.2c1.6 0 2.8-1.3 2.8-2.8v-17.6c0-5.9 3.6-9.8 8.8-9.8s8.8 3.9 8.8 9.8v17.6c0 1.6 1.3 2.8 2.8 2.8h3.2c1.6 0 2.8-1.3 2.8-2.8v-19.2c.2-7.8-6.2-16.8-17.5-16.8zm233.9.3c-1.2-.3-4.3-.4-5.9-.4h-.4c-8.8 0-16.9 7.2-16.9 17.1v18.8c0 1.6 1.3 2.8 2.8 2.8h3.2c1.6 0 2.8-1.3 2.8-2.8v-18.5c0-5.4 3.8-8.9 8.6-8.9.9 0 1.8.1 2.7.3.2 0 .5.1.7.1 1.8 0 3.4-1.2 3.8-3 .2-1 .4-1.7.6-2.3.2-.7.1-1.4-.3-2s-1-1-1.7-1.2zm23.8 8.3c1.6 0 2.8-1.3 2.8-2.8v-2.6c0-1.6-1.3-2.8-2.8-2.8h-7.8v-8.5c0-1.6-1.3-2.8-2.8-2.8h-3.4c-1.6 0-2.8 1.3-2.8 2.8v30.9c0 8.9 6.8 16.8 16.2 16.8.9 0 1.8-.4 2.5-1 .7-.7 1-1.6 1-2.5v-2.2c0-1.6-1.3-2.8-2.9-2.8-3.6 0-7.8-2.8-7.8-7.8v-14.8h7.8zm-61.9-5.6c-3-2-6.7-3-10.8-3h-.2-.2c-4 0-7.8 1.1-10.7 3-5.4 3.4-8.7 9.4-8.7 16.8 0 7.8 3.6 14 9.5 17.3 2.7 1.6 6 2.6 9.5 2.6 6.4 0 10.2-3.6 11.5-5.2v1.4c0 1.6 1.3 2.8 2.8 2.8h3.2c1.6 0 2.8-1.3 2.8-2.8v-16c0-7.5-3.3-13.5-8.7-16.9zm-7.4 27.7c-1 .3-2.1.5-3.1.6h-.2-.2-.2-.2c-1.1 0-2.1-.2-3.1-.6-4.2-1.5-7-5.6-7-10.9 0-6.2 3.9-10.8 9.4-11.4h2.4c5.5.6 9.4 5.2 9.4 11.4-.2 5.3-3 9.4-7.2 10.9zm-73.5-27.7c-3-2-6.7-3-10.8-3h-.2-.2c-4 0-7.8 1.1-10.7 3-5.4 3.4-8.7 9.4-8.7 16.8 0 7.8 3.6 14 9.5 17.3 2.7 1.6 6 2.6 9.5 2.6 6.4 0 10.2-3.6 11.5-5.2v1.4c0 1.6 1.3 2.8 2.8 2.8h3.2c1.6 0 2.8-1.3 2.8-2.8v-16c0-7.5-3.3-13.5-8.7-16.9zm-7.4 27.7c-1 .3-2.1.5-3.1.6h-.2-.2-.2-.2c-1.1 0-2.1-.2-3.1-.6-4.2-1.5-7-5.6-7-10.9 0-6.2 3.9-10.8 9.4-11.4h2.4c5.5.6 9.4 5.2 9.4 11.4-.2 5.3-3 9.4-7.2 10.9z" fill="#43b02a" fill-rule="nonzero" transform="matrix(1.16401 0 0 1.16401 81.612732428 30.6304697086)"/></svg>