<svg xmlns:xlink="http://www.w3.org/1999/xlink" xmlns="http://www.w3.org/2000/svg" width="200" height="40" fill="none" class="UserLogo variant-- " viewBox="0 0 200 40"><path fill="#00A1E0" d="M94.78 4.374c1.846-1.912 4.418-3.121 7.253-3.121 3.78 0 7.055 2.11 8.813 5.23a12.154 12.154 0 014.989-1.054c6.813 0 12.308 5.56 12.308 12.417s-5.517 12.418-12.308 12.418a12.35 12.35 0 01-2.417-.242 9.015 9.015 0 01-7.869 4.615 9.073 9.073 0 01-3.934-.9c-1.56 3.67-5.208 6.263-9.45 6.263-4.418 0-8.198-2.791-9.649-6.725a9.68 9.68 0 01-1.956.198c-5.274 0-9.538-4.308-9.538-9.649a9.658 9.658 0 014.77-8.351 10.885 10.885 0 01-.924-4.418C74.846 4.967 79.835 0 85.945 0c3.604 0 6.813 1.714 8.835 4.374z"></path><path fill="#FFFFFF" d="M79.286 20.747l.242-.637c.044-.11.11-.066.153-.044.066.044.11.066.198.132.682.44 1.319.44 1.517.44.505 0 .835-.264.835-.638v-.022c0-.396-.484-.55-1.055-.725l-.132-.044c-.77-.22-1.604-.55-1.604-1.517v-.022c0-.923.747-1.582 1.824-1.582h.11c.637 0 1.23.176 1.67.461.044.022.088.066.066.132-.022.066-.22.572-.242.638-.044.11-.154.044-.154.044a3.342 3.342 0 00-1.494-.374c-.462 0-.747.242-.747.571v.022c0 .374.505.55 1.077.726l.11.022c.769.241 1.582.571 1.582 1.516v.022c0 1.011-.725 1.627-1.89 1.627-.572 0-1.121-.088-1.715-.396-.11-.066-.22-.11-.33-.198-.021-.044-.065-.066-.021-.154zm17.143 0l.241-.637c.044-.11.132-.066.154-.044.066.044.11.066.198.132.681.44 1.319.44 1.517.44.505 0 .835-.264.835-.638v-.022c0-.396-.484-.55-1.055-.725l-.132-.044c-.77-.22-1.604-.55-1.604-1.517v-.022c0-.923.747-1.582 1.824-1.582h.11c.637 0 1.23.176 1.67.461.044.022.088.066.066.132-.022.066-.22.572-.242.638-.044.11-.154.044-.154.044a3.342 3.342 0 00-1.494-.374c-.462 0-.747.242-.747.571v.022c0 .374.505.55 1.076.726l.11.022c.77.241 1.583.571 1.583 1.516v.022c0 1.011-.726 1.627-1.89 1.627-.572 0-1.121-.088-1.715-.396-.11-.066-.22-.11-.33-.198 0-.044-.043-.066-.021-.154zm12.703-3.01c.088.329.154.68.154 1.054s-.044.725-.154 1.055c-.088.33-.242.615-.44.857-.197.242-.461.44-.747.572a2.652 2.652 0 01-1.055.198c-.395 0-.747-.066-1.055-.198a1.948 1.948 0 01-.747-.572 2.252 2.252 0 01-.439-.857 4.072 4.072 0 01-.154-1.055c0-.373.044-.725.154-1.055.087-.33.241-.615.439-.857s.462-.44.747-.571c.308-.132.66-.22 1.055-.22.396 0 .748.066 1.055.22.308.132.55.33.747.571.198.242.352.528.44.857zm-.989 1.032c0-.571-.11-1.01-.308-1.318-.197-.308-.527-.462-.945-.462-.439 0-.747.154-.945.462-.198.307-.307.747-.307 1.318 0 .572.109 1.011.307 1.34.198.309.506.462.945.462.44 0 .748-.153.945-.461.22-.308.308-.77.308-1.34zm9.033 1.649l.242.659c.022.088-.044.11-.044.11-.374.154-.879.242-1.385.242-.857 0-1.494-.242-1.934-.726-.439-.483-.659-1.143-.659-1.956 0-.373.044-.725.154-1.055s.263-.615.483-.857c.22-.242.484-.44.791-.571a2.8 2.8 0 011.099-.22c.286 0 .528.022.726.044.219.044.527.11.659.176.022 0 .088.044.066.11-.088.263-.154.44-.242.659-.044.11-.11.066-.11.066a3.089 3.089 0 00-1.033-.154c-.483 0-.857.154-1.077.484-.241.307-.373.725-.373 1.296 0 .616.153 1.055.417 1.34.264.287.638.419 1.121.419.198 0 .374-.022.528-.044.153-.022.307-.066.461-.132-.022.044.066.022.11.11zm4.989-2.88c.22.748.11 1.385.088 1.429 0 .088-.088.088-.088.088h-3.319c.022.505.132.857.396 1.099.242.242.615.395 1.143.395.791 0 1.121-.153 1.362-.241 0 0 .088-.022.132.066l.22.615c.044.11 0 .132-.022.154-.198.11-.703.33-1.67.33-.462 0-.879-.066-1.209-.198a2.214 2.214 0 01-.835-.55 2.447 2.447 0 01-.484-.835 3.31 3.31 0 01-.154-1.055c0-.374.044-.725.154-1.055.088-.33.242-.615.44-.857s.461-.44.769-.571c.308-.154.681-.22 1.099-.22.352 0 .681.066.945.198.198.088.418.241.637.483.11.088.308.418.396.726zm-3.297.704h2.352c-.022-.308-.088-.572-.22-.791-.198-.308-.483-.484-.923-.484-.439 0-.747.176-.945.484-.132.197-.198.461-.264.79zm-23.23-.704c.22.748.11 1.385.11 1.429 0 .088-.089.088-.089.088h-3.318c.022.505.132.857.395 1.099.242.242.616.395 1.143.395.791 0 1.121-.153 1.363-.241 0 0 .088-.022.132.066l.22.615c.043.11 0 .132-.022.154-.198.11-.704.33-1.67.33-.462 0-.88-.066-1.21-.198a2.214 2.214 0 01-.835-.55 2.447 2.447 0 01-.483-.835 3.312 3.312 0 01-.154-1.055c0-.374.044-.725.154-1.055.088-.33.242-.615.44-.857.197-.242.46-.44.769-.571.307-.154.68-.22 1.098-.22.352 0 .682.066.946.198.197.088.417.241.637.483.088.088.308.418.373.726zm-3.297.704h2.373c-.022-.308-.087-.572-.22-.791-.197-.308-.483-.484-.922-.484-.44 0-.748.176-.945.484-.154.197-.22.461-.286.79zm-5.824-.176s.263.022.55.066V18c0-.44-.089-.66-.265-.791-.175-.132-.461-.22-.813-.22 0 0-.813 0-1.45.33-.022.022-.044.022-.044.022s-.088.022-.11-.044l-.242-.638c-.044-.088.022-.132.022-.132.308-.241 1.011-.373 1.011-.373a5.95 5.95 0 01.88-.088c.659 0 1.164.154 1.516.462.351.307.527.79.527 1.472v3.033s0 .088-.066.11c0 0-.132.044-.242.066s-.505.11-.835.154c-.33.066-.66.088-1.01.088-.33 0-.616-.022-.88-.088a2.12 2.12 0 01-.681-.286 1.488 1.488 0 01-.44-.528c-.11-.197-.154-.461-.154-.747 0-.285.066-.55.176-.769.11-.22.286-.396.484-.55.198-.153.44-.241.681-.33a3.3 3.3 0 01.813-.109c.264.022.44.022.572.022zm-1.319 2.33s.308.241.967.197c.483-.022.901-.11.901-.11v-1.516s-.418-.066-.901-.066c-.681 0-.967.242-.967.242-.198.132-.286.352-.286.637 0 .176.044.33.11.44.022.044.044.088.176.176zm28.022-4.022c-.022.087-.198.55-.242.703-.022.066-.066.088-.132.088 0 0-.197-.044-.373-.044-.11 0-.286.022-.44.066a1.142 1.142 0 00-.417.242c-.132.11-.22.285-.286.483-.066.198-.11.528-.11.88v2.46c0 .067-.044.11-.11.11h-.879c-.066 0-.11-.043-.11-.11v-4.944c0-.066.044-.11.088-.11h.857c.066 0 .088.044.088.11v.395c.132-.176.352-.33.549-.417.198-.088.44-.154.858-.132.219.022.505.066.549.088.088.022.132.044.11.132zm-8.154-2.286c.022 0 .088.044.066.11l-.264.703c-.022.044-.044.088-.154.044-.022 0-.065-.022-.175-.044-.066-.022-.176-.022-.264-.022a1.71 1.71 0 00-.352.044.56.56 0 00-.285.176 1.1 1.1 0 00-.242.351 3.29 3.29 0 00-.176.748h1.055c.088 0 .11.044.11.11l-.132.681c-.022.11-.11.088-.11.088h-1.099l-.703 4.242c-.088.44-.176.813-.286 1.12-.11.308-.242.528-.439.748-.176.198-.374.351-.616.417-.22.088-.505.132-.813.132-.154 0-.308 0-.484-.044a1.259 1.259 0 01-.307-.088c-.044-.022-.066-.066-.044-.132.022-.065.22-.593.242-.68.043-.089.11-.045.11-.045.065.022.11.044.175.066.088.022.176.022.264.022.154 0 .286-.022.396-.066.132-.044.219-.132.307-.242s.154-.263.242-.461a7.39 7.39 0 00.198-.813l.747-4.154h-.725c-.088 0-.11-.044-.11-.11l.132-.681c.022-.11.11-.088.11-.088h.747l.044-.22c.11-.66.33-1.165.659-1.495.33-.33.813-.505 1.407-.505.176 0 .33.022.461.044a.528.528 0 01.308.044zM90.253 21.23c0 .066-.044.11-.088.11h-.88c-.065 0-.087-.044-.087-.11v-7.055c0-.044.044-.11.088-.11h.879c.066 0 .088.044.088.11v7.055z"></path><title>Salesforce logo</title></svg>