<svg xmlns:xlink="http://www.w3.org/1999/xlink" xmlns="http://www.w3.org/2000/svg" width="200" height="40" fill="none" class="UserLogo variant-- " viewBox="0 0 200 40"><path fill="#005478" d="M149.817 5l.003.003 10.198 7.623.004.003v9.719L177.36 5.004l.004-.004h4.736l-.02.02-25.488 25.45-.02.02V14.02l-11.991-9-.028-.02h5.264zm-33.261 10.455c4.287 0 7.645 3.303 7.645 7.518s-3.358 7.517-7.645 7.517c-4.275 0-7.624-3.302-7.624-7.517s3.349-7.518 7.624-7.518zm-21.748.107l.075.086 8.228 9.317V15.69h2.765v14.672h-1.519l-8.323-9.404v9.298h-2.765V15.562h1.539zm41.718.022l.064.16 3.65 9.315 3.325-9.37h2.973l-5.449 14.673h-1.502l-3.809-9.818-3.787 9.818h-1.523l-.062-.165-5.411-14.507h2.973l.061.167 3.288 9.204 3.713-9.477h1.496zm-19.949 2.444c-2.777 0-4.795 2.07-4.795 4.924 0 2.877 2.018 4.965 4.795 4.965 2.778 0 4.795-2.088 4.795-4.965 0-2.807-2.061-4.924-4.795-4.924z"></path><path fill="#0BA1E2" d="M22.819 15.455c2.262 0 4.069.99 4.953 2.715l.097.187-1.94 1.515-.15-.235c-.698-1.095-1.693-1.651-2.96-1.651-.945 0-2.047.38-2.047 1.45 0 .879.699 1.229 1.935 1.77l1.662.724c1.905.852 3.667 1.955 3.667 4.238 0 2.545-2.128 4.322-5.175 4.322-2.598 0-4.699-1.183-5.763-3.247l-.098-.19 1.99-1.513.146.24c.877 1.446 2.123 2.18 3.704 2.18 1.438 0 2.367-.67 2.367-1.707 0-.925-.73-1.29-2.019-1.856l-1.666-.745c-1.666-.73-3.58-1.861-3.58-4.13 0-2.356 2.05-4.067 4.877-4.067zm11.228.235v5.815h7.077V15.69h2.765v14.566h-2.765v-6.22h-7.077v6.22h-2.765V15.69h2.765zm20.471-.107l6.84 14.673h-2.989l-1.427-3.131h-6.343l-1.426 3.131h-2.99l6.84-14.673h1.495zm15.225.107c3.034 0 5.153 1.812 5.153 4.407 0 2.019-1.26 3.594-3.314 4.183l4.028 5.976h-3.191l-3.813-5.73h-2.21v5.73h-2.765V15.69h6.112zm19.545 0v2.53h-7.796v3.328h7.115v2.467h-7.115v3.71h7.902v2.531H78.726V15.69h10.562zm-35.507 4.25l-2.083 4.74h4.165l-2.082-4.74zm15.92-1.741h-3.305v3.796h3.305c1.48 0 2.365-.701 2.365-1.876 0-1.185-.906-1.92-2.365-1.92z"></path><title>ShareNow logo</title></svg>