<svg xmlns:xlink="http://www.w3.org/1999/xlink" xmlns="http://www.w3.org/2000/svg" width="200" height="40" class="UserLogo variant-- " viewBox="0 0 200 40"><title>Shopify logo</title><path fill="#95BF47" d="M66.54 8.43c-.02-.18-.18-.26-.3-.27-.11-.02-2.46-.04-2.46-.04L61.61 6c-.19-.2-.56-.14-.72-.1l-1 .31a6.5 6.5 0 00-.46-1.15c-.7-1.35-1.72-2.05-2.97-2.05-.08 0-.18 0-.26.02a2.6 2.6 0 00-2.17-.98c-1.6.04-3.18 1.2-4.5 3.26A12.73 12.73 0 0047.75 10c-1.84.57-3.13.96-3.14.98-.92.3-.96.31-1.08 1.2-.1.64-2.52 19.41-2.52 19.41l20.34 3.52 8.81-2.19S66.55 8.6 66.54 8.43zm-7.66-1.9l-1.58.5a9.17 9.17 0 00-.5-2.92c1.24.23 1.83 1.6 2.08 2.42zm-2.64.82l-3.4 1.06c.33-1.25.96-2.5 1.72-3.32.3-.32.68-.65 1.15-.84.45.92.53 2.22.53 3.1zm-2.19-4.22c.37 0 .69.08.96.26-.43.21-.86.54-1.25.97a9.33 9.33 0 00-2.11 4.42l-2.8.86c.6-2.58 2.74-6.43 5.2-6.5z"></path><path class="UserLogo__path--blendModeMultiply" fill="#5E8E3E" d="M66.25 8.16c-.12-.02-2.47-.04-2.47-.04L61.61 6a.39.39 0 00-.27-.12V35.1l8.81-2.19s-3.6-24.3-3.61-24.48a.35.35 0 00-.3-.27z"></path><path fill="#FFFFFF" d="M56.46 12.69l-1.02 3.83s-1.13-.53-2.5-.43c-2 .12-2.01 1.37-2 1.7.12 1.72 4.62 2.09 4.87 6.1.2 3.16-1.68 5.31-4.38 5.49a6.59 6.59 0 01-5.02-1.7l.69-2.92s1.8 1.35 3.22 1.27a1.26 1.26 0 001.23-1.36c-.14-2.23-3.8-2.11-4.04-5.77-.2-3.09 1.83-6.21 6.3-6.5 1.77-.16 2.65.29 2.65.29z"></path><path fill="var(--userLogoColor, #000)" d="M82.1 20.86c-1.02-.55-1.55-1.02-1.55-1.66 0-.83.72-1.35 1.88-1.35 1.32 0 2.5.54 2.5.54l.93-2.85s-.86-.66-3.38-.66c-3.51 0-5.96 2.01-5.96 4.84 0 1.6 1.14 2.84 2.66 3.72 1.23.7 1.66 1.19 1.66 1.93 0 .76-.6 1.37-1.76 1.37-1.7 0-3.3-.88-3.3-.88l-1 2.85s1.49 1 3.97 1c3.62 0 6.22-1.78 6.22-4.98.02-1.74-1.3-2.97-2.88-3.87zm14.41-6.02c-1.77 0-3.18.84-4.26 2.13l-.05-.02 1.54-8.1H89.7l-3.9 20.58h4.02l1.35-7.03c.53-2.66 1.9-4.3 3.18-4.3.9 0 1.25.6 1.25 1.49 0 .54-.05 1.23-.17 1.77l-1.53 8.05h4.03l1.58-8.32c.18-.88.3-1.93.3-2.62 0-2.24-1.22-3.63-3.3-3.63zm12.41 0c-4.84 0-8.05 4.37-8.05 9.26 0 3.13 1.94 5.63 5.55 5.63 4.75 0 7.97-4.26 7.97-9.26-.02-2.88-1.72-5.63-5.47-5.63zm-2 11.8c-1.36 0-1.95-1.17-1.95-2.62 0-2.3 1.2-6.08 3.39-6.08 1.42 0 1.9 1.24 1.9 2.43 0 2.48-1.2 6.27-3.33 6.27zm17.75-11.8c-2.71 0-4.26 2.38-4.26 2.38h-.06l.24-2.17h-3.56a77.76 77.76 0 01-.82 5.34l-2.8 14.73h4.03l1.12-5.96h.07s.82.53 2.37.53c4.73 0 7.81-4.85 7.81-9.75.02-2.68-1.19-5.1-4.14-5.1zm-3.85 11.86c-1.05 0-1.66-.59-1.66-.59l.67-3.77c.46-2.5 1.77-4.18 3.18-4.18 1.23 0 1.6 1.13 1.6 2.23 0 2.6-1.54 6.3-3.79 6.3zm13.76-17.63a2.3 2.3 0 00-2.3 2.35c0 1.19.75 2.01 1.89 2.01h.06c1.25 0 2.34-.84 2.36-2.34 0-1.18-.78-2.02-2.01-2.02zm-5.63 20.36h4.03l2.73-14.26h-4.06l-2.7 14.26zm17-14.3h-2.8l.14-.66c.24-1.37 1.06-2.6 2.39-2.6.72 0 1.29.2 1.29.2l.78-3.15s-.7-.35-2.19-.35c-1.43 0-2.85.4-3.95 1.34-1.37 1.18-2.01 2.86-2.34 4.56l-.12.66h-1.88l-.58 3.03h1.87l-2.13 11.27h4.03l2.13-11.27h2.77l.6-3.03zm9.7.04s-2.53 6.35-3.66 9.8h-.06c-.08-1.1-1-9.8-1-9.8h-4.22l2.43 13.11c.05.3.02.47-.08.67a6.95 6.95 0 01-2.2 2.42c-.75.55-1.6.9-2.28 1.13l1.12 3.42c.82-.17 2.5-.84 3.94-2.19 1.84-1.72 3.54-4.37 5.28-7.99l4.92-10.57h-4.2z"></path></svg>