<svg xmlns:xlink="http://www.w3.org/1999/xlink" xmlns="http://www.w3.org/2000/svg" width="200" height="40" class="UserLogo variant-- " viewBox="0 0 200 40"><title>Statista logo</title><path fill="#0F2741" d="M55.64 18.5c-.23-1.24-.8-1.93-1.84-1.93-.83 0-1.4.44-1.4 1.24 0 2.42 6.03 3.4 6.03 8 0 2.78-1.9 4.18-4.52 4.18-2.81 0-4.42-1.61-4.91-4.32l2.82-.77c.2 1.3.66 2.44 2.12 2.44.84 0 1.44-.49 1.44-1.35 0-2.68-6.04-3.68-6.04-7.92 0-2.44 1.9-4.14 4.32-4.14 2.53 0 4.22 1.7 4.71 4.11l-2.73.46zm4.05-1.64v-2.64h1.79v-4.18h3.22v4.18h2.16v2.64H64.7v8.93c0 .8.35 1.26 1.1 1.26h1.06v2.77c-.53.13-1.07.2-1.61.17-2.42 0-3.77-1.12-3.77-3.48v-9.65h-1.79zm8.92 1.9c.17-3.13 2.16-4.83 5.18-4.83 3.02 0 4.68 1.38 4.68 4.2v9.93c.03.56.1 1.11.2 1.66H75.6c-.03-.44-.15-.84-.17-1.22-1.21.98-2.22 1.5-3.77 1.5-2.19 0-3.28-1.5-3.28-3.48 0-3.4 2.24-5.27 6.87-7.03v-.93c0-1.3-.51-1.98-1.58-1.98-1.47 0-1.78.86-1.84 2.18h-3.22zm6.64 3.08c-2.93 1.67-3.65 2.74-3.65 4.1 0 1 .52 1.4 1.5 1.4.89 0 1.6-.66 2.15-1.44v-4.06zm5.2-4.98v-2.64h1.8v-4.18h3.21v4.18h2.16v2.64h-2.16v8.93c0 .8.34 1.26 1.1 1.26h1.06v2.77c-.53.13-1.07.2-1.61.17-2.42 0-3.77-1.12-3.77-3.48v-9.65h-1.78zm9.3-3.92V10h3.23v2.94h-3.22zm0 16.78v-15.5h3.23v15.5h-3.22zm12.22-11.22c-.23-1.24-.8-1.93-1.84-1.93-.84 0-1.41.44-1.41 1.24 0 2.42 6.04 3.4 6.04 8 0 2.77-1.9 4.18-4.52 4.18-2.82 0-4.43-1.62-4.92-4.32l2.82-.78c.2 1.3.66 2.45 2.13 2.45.83 0 1.44-.5 1.44-1.35 0-2.68-6.04-3.69-6.04-7.92 0-2.45 1.9-4.14 4.31-4.14 2.53 0 4.23 1.7 4.72 4.1l-2.73.47zm4.05-1.64v-2.64h1.79v-4.18h3.23v4.18h2.16v2.64h-2.16v8.93c0 .8.35 1.26 1.1 1.26h1.06v2.77c-.53.14-1.07.2-1.61.17-2.42 0-3.76-1.12-3.76-3.48v-9.65h-1.8zm8.91 1.9c.18-3.13 2.16-4.83 5.18-4.83 3.02 0 4.7 1.38 4.7 4.2v9.93c.02.55.08 1.1.2 1.64h-3.08c-.03-.43-.15-.83-.18-1.2-1.2.97-2.21 1.49-3.77 1.49-2.18 0-3.27-1.5-3.27-3.49 0-3.4 2.24-5.26 6.87-7.02v-.92c0-1.3-.52-1.98-1.58-1.98-1.47 0-1.79.86-1.84 2.18h-3.23zm6.65 3.08c-2.93 1.67-3.65 2.74-3.65 4.1 0 1 .52 1.4 1.49 1.4.9 0 1.61-.66 2.16-1.44v-4.06zm28.72-11.82h-18.55a.7.7 0 00-.7.7v12.64h.1s3-.06 4.3-.75a9.05 9.05 0 002.78-2.54l.74-1.06.24-.34.23-.31.67-.98s1.8-2.62 4.37-3.95c2.79-1.43 6.46-1.28 6.46-1.28h.06v-1.43a.7.7 0 00-.7-.7zm-3.78 7.36a9.1 9.1 0 00-2.78 2.54L143 21l-.24.34-.23.31-.66.97s-1.81 2.62-4.38 3.95c-2.66 1.39-6.15 1.3-6.44 1.29v1.44a.7.7 0 00.7.7h18.55c.38 0 .7-.31.7-.7V16.63l-.18.02s-3 .06-4.3.73z"></path></svg>