<svg xmlns:xlink="http://www.w3.org/1999/xlink" class="AnimatedIcon__icon" width="96" height="96" preserveAspectRatio="xMinYMin" viewBox="0 0 96 96" xmlns="http://www.w3.org/2000/svg" data-js-controller="BlocksIcon">
      <defs>
      <path id="blocksIconBack" d="M30.68 31.37l9 4.15A4 4 0 0 1 42 39.15v10.89a4 4 0 0 1-2.32 3.63l-9 4.15a4 4 0 0 1-3.36 0l-9-4.15A4 4 0 0 1 16 50.04V39.15a4 4 0 0 1 .35-1.62L29 43.36v-1.54l-11.85-5.47a4 4 0 0 1 1.17-.83l9-4.15a4 4 0 0 1 3.36 0z"></path>
      <path id="blocksIconFront" d="M55 45.15v10.89a4 4 0 0 1-2.32 3.63l-9 4.15a4 4 0 0 1-3.36 0l-9-4.15A4 4 0 0 1 29 56.04V45.15a4 4 0 0 1 .35-1.62L42 49.37l12.65-5.84a4 4 0 0 1 .35 1.62zm-11.32-7.78l9 4.15a4 4 0 0 1 1.17.83L42 47.82l-11.86-5.47a4 4 0 0 1 1.18-.83l9-4.15a4 4 0 0 1 3.36 0z"></path>
      <clipPath id="blocksIconClipPath">
        <use data-js-target-list="BlocksIcon.firstBackBlocks" href="#blocksIconFront" transform="translate(-13, -6)" data-js-bbox="firstHiddenBlock"></use>
        <use data-js-target-list="BlocksIcon.secondBackBlocks" href="#blocksIconFront" transform="translate(-65, -30)" data-js-bbox="secondHiddenBlock"></use>
      </clipPath>
    <path id="blocksIconFront" d="M55 45.15v10.89a4 4 0 0 1-2.32 3.63l-9 4.15a4 4 0 0 1-3.36 0l-9-4.15A4 4 0 0 1 29 56.04V45.15a4 4 0 0 1 .35-1.62L42 49.37l12.65-5.84a4 4 0 0 1 .35 1.62zm-11.32-7.78l9 4.15a4 4 0 0 1 1.17.83L42 47.82l-11.86-5.47a4 4 0 0 1 1.18-.83l9-4.15a4 4 0 0 1 3.36 0z"></path><path id="blocksIconFront" d="M55 45.15v10.89a4 4 0 0 1-2.32 3.63l-9 4.15a4 4 0 0 1-3.36 0l-9-4.15A4 4 0 0 1 29 56.04V45.15a4 4 0 0 1 .35-1.62L42 49.37l12.65-5.84a4 4 0 0 1 .35 1.62zm-11.32-7.78l9 4.15a4 4 0 0 1 1.17.83L42 47.82l-11.86-5.47a4 4 0 0 1 1.18-.83l9-4.15a4 4 0 0 1 3.36 0z"></path><path id="blocksIconFront" d="M55 45.15v10.89a4 4 0 0 1-2.32 3.63l-9 4.15a4 4 0 0 1-3.36 0l-9-4.15A4 4 0 0 1 29 56.04V45.15a4 4 0 0 1 .35-1.62L42 49.37l12.65-5.84a4 4 0 0 1 .35 1.62zm-11.32-7.78l9 4.15a4 4 0 0 1 1.17.83L42 47.82l-11.86-5.47a4 4 0 0 1 1.18-.83l9-4.15a4 4 0 0 1 3.36 0z"></path><path id="blocksIconFront" d="M55 45.15v10.89a4 4 0 0 1-2.32 3.63l-9 4.15a4 4 0 0 1-3.36 0l-9-4.15A4 4 0 0 1 29 56.04V45.15a4 4 0 0 1 .35-1.62L42 49.37l12.65-5.84a4 4 0 0 1 .35 1.62zm-11.32-7.78l9 4.15a4 4 0 0 1 1.17.83L42 47.82l-11.86-5.47a4 4 0 0 1 1.18-.83l9-4.15a4 4 0 0 1 3.36 0z"></path><path id="blocksIconFront" d="M55 45.15v10.89a4 4 0 0 1-2.32 3.63l-9 4.15a4 4 0 0 1-3.36 0l-9-4.15A4 4 0 0 1 29 56.04V45.15a4 4 0 0 1 .35-1.62L42 49.37l12.65-5.84a4 4 0 0 1 .35 1.62zm-11.32-7.78l9 4.15a4 4 0 0 1 1.17.83L42 47.82l-11.86-5.47a4 4 0 0 1 1.18-.83l9-4.15a4 4 0 0 1 3.36 0z"></path><path id="blocksIconFront" d="M55 45.15v10.89a4 4 0 0 1-2.32 3.63l-9 4.15a4 4 0 0 1-3.36 0l-9-4.15A4 4 0 0 1 29 56.04V45.15a4 4 0 0 1 .35-1.62L42 49.37l12.65-5.84a4 4 0 0 1 .35 1.62zm-11.32-7.78l9 4.15a4 4 0 0 1 1.17.83L42 47.82l-11.86-5.47a4 4 0 0 1 1.18-.83l9-4.15a4 4 0 0 1 3.36 0z"></path><path id="blocksIconFront" d="M55 45.15v10.89a4 4 0 0 1-2.32 3.63l-9 4.15a4 4 0 0 1-3.36 0l-9-4.15A4 4 0 0 1 29 56.04V45.15a4 4 0 0 1 .35-1.62L42 49.37l12.65-5.84a4 4 0 0 1 .35 1.62zm-11.32-7.78l9 4.15a4 4 0 0 1 1.17.83L42 47.82l-11.86-5.47a4 4 0 0 1 1.18-.83l9-4.15a4 4 0 0 1 3.36 0z"></path><path id="blocksIconFront" d="M55 45.15v10.89a4 4 0 0 1-2.32 3.63l-9 4.15a4 4 0 0 1-3.36 0l-9-4.15A4 4 0 0 1 29 56.04V45.15a4 4 0 0 1 .35-1.62L42 49.37l12.65-5.84a4 4 0 0 1 .35 1.62zm-11.32-7.78l9 4.15a4 4 0 0 1 1.17.83L42 47.82l-11.86-5.47a4 4 0 0 1 1.18-.83l9-4.15a4 4 0 0 1 3.36 0z"></path><path id="blocksIconFront" d="M55 45.15v10.89a4 4 0 0 1-2.32 3.63l-9 4.15a4 4 0 0 1-3.36 0l-9-4.15A4 4 0 0 1 29 56.04V45.15a4 4 0 0 1 .35-1.62L42 49.37l12.65-5.84a4 4 0 0 1 .35 1.62zm-11.32-7.78l9 4.15a4 4 0 0 1 1.17.83L42 47.82l-11.86-5.47a4 4 0 0 1 1.18-.83l9-4.15a4 4 0 0 1 3.36 0z"></path><path id="blocksIconFront" d="M55 45.15v10.89a4 4 0 0 1-2.32 3.63l-9 4.15a4 4 0 0 1-3.36 0l-9-4.15A4 4 0 0 1 29 56.04V45.15a4 4 0 0 1 .35-1.62L42 49.37l12.65-5.84a4 4 0 0 1 .35 1.62zm-11.32-7.78l9 4.15a4 4 0 0 1 1.17.83L42 47.82l-11.86-5.47a4 4 0 0 1 1.18-.83l9-4.15a4 4 0 0 1 3.36 0z"></path></defs>

    <use data-js-target="BlocksIcon.firstHiddenBlock" href="#blocksIconFront" transform="translate(-13, -6)" style="visibility: hidden;"></use>
    <use data-js-target="BlocksIcon.secondHiddenBlock" href="#blocksIconFront" transform="translate(-65, -30)" style="visibility: hidden;"></use>

    <use data-js-target-list="BlocksIcon.secondBackBlocks" href="#blocksIconFront" fill="#00D4FF" style="opacity: 0;"></use>
    <use data-js-target-list="BlocksIcon.secondFrontBlocks" href="#blocksIconFront" fill="#7A73FF" style="opacity: 0;"></use>
    <use data-js-target-list="BlocksIcon.firstBackBlocks" href="#blocksIconFront" fill="#00D4FF" transform="translate(-13, -6)"></use>
    <use data-js-target-list="BlocksIcon.firstFrontBlocks" href="#blocksIconFront" fill="#7A73FF"></use>
    <g clip-path="url(#blocksIconClipPath)">
      <use data-js-target-list="BlocksIcon.firstFrontBlocks" href="#blocksIconFront" fill="#CCFFFF"></use>
      <use data-js-target-list="BlocksIcon.secondFrontBlocks" href="#blocksIconFront" fill="#CCFFFF" style="opacity: 0;"></use>
    </g>
    </svg>