<svg xmlns:xlink="http://www.w3.org/1999/xlink" class="AnimatedIcon__icon" width="96" height="96" preserveAspectRatio="xMinYMin" viewBox="0 0 96 96" xmlns="http://www.w3.org/2000/svg" data-js-controller="NodesIcon">
      <defs>
      <path id="nodesIconSegment" d="M20 41.15l9.7 5.55a1.5 1.5 0 0 1 0 2.6L20 54.85v-13.7z"></path>
      <circle id="nodesIconDot" cx="34" cy="48" r="6"></circle>
      <clipPath id="nodesIconClipPath">
        <use class="NodesIcon__dot" href="#nodesIconDot" x="0" y="-24" data-js-target-list="NodesIcon.clipPathDots"></use>
        <use class="NodesIcon__dot" href="#nodesIconDot" x="21" y="-12" data-js-target-list="NodesIcon.clipPathDots"></use>
        <use class="NodesIcon__dot" href="#nodesIconDot" x="21" y="12" data-js-target-list="NodesIcon.clipPathDots"></use>
        <use class="NodesIcon__dot" href="#nodesIconDot" x="0" y="24" data-js-target-list="NodesIcon.clipPathDots"></use>
        <use class="NodesIcon__dot" href="#nodesIconDot" x="-21" y="12" data-js-target-list="NodesIcon.clipPathDots"></use>
        <use class="NodesIcon__dot" href="#nodesIconDot" x="-21" y="-12" data-js-target-list="NodesIcon.clipPathDots"></use>
      </clipPath>
    <circle id="nodesIconDot" cx="34" cy="48" r="6"></circle><circle id="nodesIconDot" cx="34" cy="48" r="6"></circle><circle id="nodesIconDot" cx="34" cy="48" r="6"></circle><circle id="nodesIconDot" cx="34" cy="48" r="6"></circle><circle id="nodesIconDot" cx="34" cy="48" r="6"></circle><circle id="nodesIconDot" cx="34" cy="48" r="6"></circle><path id="nodesIconSegment" d="M20 41.15l9.7 5.55a1.5 1.5 0 0 1 0 2.6L20 54.85v-13.7z"></path><path id="nodesIconSegment" d="M20 41.15l9.7 5.55a1.5 1.5 0 0 1 0 2.6L20 54.85v-13.7z"></path><path id="nodesIconSegment" d="M20 41.15l9.7 5.55a1.5 1.5 0 0 1 0 2.6L20 54.85v-13.7z"></path><path id="nodesIconSegment" d="M20 41.15l9.7 5.55a1.5 1.5 0 0 1 0 2.6L20 54.85v-13.7z"></path><path id="nodesIconSegment" d="M20 41.15l9.7 5.55a1.5 1.5 0 0 1 0 2.6L20 54.85v-13.7z"></path><path id="nodesIconSegment" d="M20 41.15l9.7 5.55a1.5 1.5 0 0 1 0 2.6L20 54.85v-13.7z"></path><circle id="nodesIconDot" cx="34" cy="48" r="6"></circle><circle id="nodesIconDot" cx="34" cy="48" r="6"></circle><circle id="nodesIconDot" cx="34" cy="48" r="6"></circle><circle id="nodesIconDot" cx="34" cy="48" r="6"></circle><circle id="nodesIconDot" cx="34" cy="48" r="6"></circle><circle id="nodesIconDot" cx="34" cy="48" r="6"></circle><path id="nodesIconSegment" d="M20 41.15l9.7 5.55a1.5 1.5 0 0 1 0 2.6L20 54.85v-13.7z"></path><path id="nodesIconSegment" d="M20 41.15l9.7 5.55a1.5 1.5 0 0 1 0 2.6L20 54.85v-13.7z"></path><path id="nodesIconSegment" d="M20 41.15l9.7 5.55a1.5 1.5 0 0 1 0 2.6L20 54.85v-13.7z"></path><path id="nodesIconSegment" d="M20 41.15l9.7 5.55a1.5 1.5 0 0 1 0 2.6L20 54.85v-13.7z"></path><path id="nodesIconSegment" d="M20 41.15l9.7 5.55a1.5 1.5 0 0 1 0 2.6L20 54.85v-13.7z"></path><path id="nodesIconSegment" d="M20 41.15l9.7 5.55a1.5 1.5 0 0 1 0 2.6L20 54.85v-13.7z"></path></defs>

    <g class="NodesIcon__segments">
      
        <g class="NodesIcon__segmentRotator" style="transform: rotate(0deg);" data-js-target-list="NodesIcon.segmentRotators">
          <use class="NodesIcon__segment" href="#nodesIconSegment" fill="#80E9FF" data-js-target-list="NodesIcon.segments"></use>
        </g>
      
        <g class="NodesIcon__segmentRotator" style="transform: rotate(60deg);" data-js-target-list="NodesIcon.segmentRotators">
          <use class="NodesIcon__segment" href="#nodesIconSegment" fill="#80E9FF" data-js-target-list="NodesIcon.segments"></use>
        </g>
      
        <g class="NodesIcon__segmentRotator" style="transform: rotate(120deg);" data-js-target-list="NodesIcon.segmentRotators">
          <use class="NodesIcon__segment" href="#nodesIconSegment" fill="#80E9FF" data-js-target-list="NodesIcon.segments"></use>
        </g>
      
        <g class="NodesIcon__segmentRotator" style="transform: rotate(180deg);" data-js-target-list="NodesIcon.segmentRotators">
          <use class="NodesIcon__segment" href="#nodesIconSegment" fill="#80E9FF" data-js-target-list="NodesIcon.segments"></use>
        </g>
      
        <g class="NodesIcon__segmentRotator" style="transform: rotate(240deg);" data-js-target-list="NodesIcon.segmentRotators">
          <use class="NodesIcon__segment" href="#nodesIconSegment" fill="#80E9FF" data-js-target-list="NodesIcon.segments"></use>
        </g>
      
        <g class="NodesIcon__segmentRotator" style="transform: rotate(300deg);" data-js-target-list="NodesIcon.segmentRotators">
          <use class="NodesIcon__segment" href="#nodesIconSegment" fill="#80E9FF" data-js-target-list="NodesIcon.segments"></use>
        </g>
      
    </g>
    <g class="NodesIcon__dots">
      <use class="NodesIcon__dot" href="#nodesIconDot" x="0" y="-24" fill="#7A73FF" data-js-target-list="NodesIcon.dots"></use>
      <use class="NodesIcon__dot" href="#nodesIconDot" x="21" y="-12" fill="#7A73FF" data-js-target-list="NodesIcon.dots"></use>
      <use class="NodesIcon__dot" href="#nodesIconDot" x="21" y="12" fill="#7A73FF" data-js-target-list="NodesIcon.dots"></use>
      <use class="NodesIcon__dot" href="#nodesIconDot" x="0" y="24" fill="#7A73FF" data-js-target-list="NodesIcon.dots"></use>
      <use class="NodesIcon__dot" href="#nodesIconDot" x="-21" y="12" fill="#7A73FF" data-js-target-list="NodesIcon.dots"></use>
      <use class="NodesIcon__dot" href="#nodesIconDot" x="-21" y="-12" fill="#7A73FF" data-js-target-list="NodesIcon.dots"></use>
    </g>
    <g clip-path="url(#nodesIconClipPath)">
      
        <g class="NodesIcon__segmentRotator" style="transform: rotate(0deg);" data-js-target-list="NodesIcon.segmentRotators">
          <use class="NodesIcon__segment" href="#nodesIconSegment" fill="#0048E5" data-js-target-list="NodesIcon.segments"></use>
        </g>
      
        <g class="NodesIcon__segmentRotator" style="transform: rotate(60deg);" data-js-target-list="NodesIcon.segmentRotators">
          <use class="NodesIcon__segment" href="#nodesIconSegment" fill="#0048E5" data-js-target-list="NodesIcon.segments"></use>
        </g>
      
        <g class="NodesIcon__segmentRotator" style="transform: rotate(120deg);" data-js-target-list="NodesIcon.segmentRotators">
          <use class="NodesIcon__segment" href="#nodesIconSegment" fill="#0048E5" data-js-target-list="NodesIcon.segments"></use>
        </g>
      
        <g class="NodesIcon__segmentRotator" style="transform: rotate(180deg);" data-js-target-list="NodesIcon.segmentRotators">
          <use class="NodesIcon__segment" href="#nodesIconSegment" fill="#0048E5" data-js-target-list="NodesIcon.segments"></use>
        </g>
      
        <g class="NodesIcon__segmentRotator" style="transform: rotate(240deg);" data-js-target-list="NodesIcon.segmentRotators">
          <use class="NodesIcon__segment" href="#nodesIconSegment" fill="#0048E5" data-js-target-list="NodesIcon.segments"></use>
        </g>
      
        <g class="NodesIcon__segmentRotator" style="transform: rotate(300deg);" data-js-target-list="NodesIcon.segmentRotators">
          <use class="NodesIcon__segment" href="#nodesIconSegment" fill="#0048E5" data-js-target-list="NodesIcon.segments"></use>
        </g>
      
    </g>
    </svg>