<svg xmlns:xlink="http://www.w3.org/1999/xlink" class="AnimatedIcon__icon" width="96" height="96" preserveAspectRatio="xMinYMin" viewBox="0 0 96 96" xmlns="http://www.w3.org/2000/svg" data-js-controller="FastForwardIcon">
      <defs>
      <path id="fastForwardIconArrow" d="M19.15 31.36l21.53 15.15a2 2 0 0 1 0 3.27L19.15 64.93A2 2 0 0 1 16 63.29V33a2 2 0 0 1 3.15-1.64z"></path>
      <clipPath id="fastForwardIconClipPath">
        <use href="#fastForwardIconArrow" fill="var(--blendBackground)" data-js-target-list="FastForwardIcon.firstBackArrows" data-js-bbox="firstHiddenArrow"></use>
        <use href="#fastForwardIconArrow" transform="translate(-42, 0)" fill="var(--blendBackground)" data-js-target-list="FastForwardIcon.secondBackArrows" data-js-bbox="secondHiddenArrow"></use>
      </clipPath>
    <path id="fastForwardIconArrow" d="M19.15 31.36l21.53 15.15a2 2 0 0 1 0 3.27L19.15 64.93A2 2 0 0 1 16 63.29V33a2 2 0 0 1 3.15-1.64z"></path><path id="fastForwardIconArrow" d="M19.15 31.36l21.53 15.15a2 2 0 0 1 0 3.27L19.15 64.93A2 2 0 0 1 16 63.29V33a2 2 0 0 1 3.15-1.64z"></path><path id="fastForwardIconArrow" d="M19.15 31.36l21.53 15.15a2 2 0 0 1 0 3.27L19.15 64.93A2 2 0 0 1 16 63.29V33a2 2 0 0 1 3.15-1.64z"></path><path id="fastForwardIconArrow" d="M19.15 31.36l21.53 15.15a2 2 0 0 1 0 3.27L19.15 64.93A2 2 0 0 1 16 63.29V33a2 2 0 0 1 3.15-1.64z"></path><path id="fastForwardIconArrow" d="M19.15 31.36l21.53 15.15a2 2 0 0 1 0 3.27L19.15 64.93A2 2 0 0 1 16 63.29V33a2 2 0 0 1 3.15-1.64z"></path><path id="fastForwardIconArrow" d="M19.15 31.36l21.53 15.15a2 2 0 0 1 0 3.27L19.15 64.93A2 2 0 0 1 16 63.29V33a2 2 0 0 1 3.15-1.64z"></path><path id="fastForwardIconArrow" d="M19.15 31.36l21.53 15.15a2 2 0 0 1 0 3.27L19.15 64.93A2 2 0 0 1 16 63.29V33a2 2 0 0 1 3.15-1.64z"></path><path id="fastForwardIconArrow" d="M19.15 31.36l21.53 15.15a2 2 0 0 1 0 3.27L19.15 64.93A2 2 0 0 1 16 63.29V33a2 2 0 0 1 3.15-1.64z"></path><path id="fastForwardIconArrow" d="M19.15 31.36l21.53 15.15a2 2 0 0 1 0 3.27L19.15 64.93A2 2 0 0 1 16 63.29V33a2 2 0 0 1 3.15-1.64z"></path><path id="fastForwardIconArrow" d="M19.15 31.36l21.53 15.15a2 2 0 0 1 0 3.27L19.15 64.93A2 2 0 0 1 16 63.29V33a2 2 0 0 1 3.15-1.64z"></path></defs>

    <use href="#fastForwardIconArrow" fill="#80E9FF" data-js-target="FastForwardIcon.firstHiddenArrow" style="visibility: hidden;"></use>
    <use href="#fastForwardIconArrow" transform="translate(-42, 0)" fill="#80E9FF" data-js-target="FastForwardIcon.secondHiddenArrow" style="visibility: hidden;"></use>

    <use href="#fastForwardIconArrow" fill="#80E9FF" data-js-target-list="FastForwardIcon.firstBackArrows"></use>
    <use href="#fastForwardIconArrow" fill="#80E9FF" data-js-target-list="FastForwardIcon.secondBackArrows" style="opacity: 0;"></use>
    <use href="#fastForwardIconArrow" transform="translate(14, 0)" fill="#7A73FF" data-js-target-list="FastForwardIcon.firstFrontArrows"></use>
    <use href="#fastForwardIconArrow" fill="#7A73FF" data-js-target-list="FastForwardIcon.secondFrontArrows" style="opacity: 0;"></use>
    <g clip-path="url(#fastForwardIconClipPath)">
      <use href="#fastForwardIconArrow" transform="translate(14, 0)" fill="#0048E5" data-js-target-list="FastForwardIcon.firstFrontArrows"></use>
      <use href="#fastForwardIconArrow" fill="#0048E5" data-js-target-list="FastForwardIcon.secondFrontArrows" style="opacity: 0;"></use>
    </g>
    </svg>