<svg xmlns:xlink="http://www.w3.org/1999/xlink" class="Icon " width="40" height="40" viewBox="0 0 40 40" fill="none" xmlns="http://www.w3.org/2000/svg"><defs><clipPath id="BrowserWithNoCodeIconClipPath-"><path fill-rule="evenodd" clip-rule="evenodd" d="M4 2C1.79086 2 0 3.79086 0 6V26C0 28.2091 1.79086 30 4 30H32C34.2091 30 36 28.2091 36 26V6C36 3.79086 34.2091 2 32 2H4ZM4.5 8C5.32843 8 6 7.32843 6 6.5C6 5.67157 5.32843 5 4.5 5C3.67157 5 3 5.67157 3 6.5C3 7.32843 3.67157 8 4.5 8ZM11 6.5C11 7.32843 10.3284 8 9.5 8C8.67157 8 8 7.32843 8 6.5C8 5.67157 8.67157 5 9.5 5C10.3284 5 11 5.67157 11 6.5ZM14.5 8C15.3284 8 16 7.32843 16 6.5C16 5.67157 15.3284 5 14.5 5C13.6716 5 13 5.67157 13 6.5C13 7.32843 13.6716 8 14.5 8Z" class="Icon__blendBackground" style="fill: var(--blendBackground);"></path></clipPath></defs><path fill-rule="evenodd" clip-rule="evenodd" d="M4 2C1.79086 2 0 3.79086 0 6V26C0 28.2091 1.79086 30 4 30H32C34.2091 30 36 28.2091 36 26V6C36 3.79086 34.2091 2 32 2H4ZM4.5 8C5.32843 8 6 7.32843 6 6.5C6 5.67157 5.32843 5 4.5 5C3.67157 5 3 5.67157 3 6.5C3 7.32843 3.67157 8 4.5 8ZM11 6.5C11 7.32843 10.3284 8 9.5 8C8.67157 8 8 7.32843 8 6.5C8 5.67157 8.67157 5 9.5 5C10.3284 5 11 5.67157 11 6.5ZM14.5 8C15.3284 8 16 7.32843 16 6.5C16 5.67157 15.3284 5 14.5 5C13.6716 5 13 5.67157 13 6.5C13 7.32843 13.6716 8 14.5 8Z" class="Icon__blendBackground" style="" fill="#00D4FF"></path><path fill-rule="evenodd" clip-rule="evenodd" d="M40 18.5C40 15.4624 37.5376 13 34.5 13H17.5C14.4624 13 12 15.4624 12 18.5C12 21.5376 14.4624 24 17.5 24H34.5C37.5376 24 40 21.5376 40 18.5ZM14 18.5C14 20.433 15.567 22 17.5 22C19.433 22 21 20.433 21 18.5C21 16.567 19.433 15 17.5 15C15.567 15 14 16.567 14 18.5ZM12 31.5C12 28.4624 14.4624 26 17.5 26H34.5C37.5376 26 40 28.4624 40 31.5C40 34.5376 37.5376 37 34.5 37H17.5C14.4624 37 12 34.5376 12 31.5ZM31 31.5C31 33.433 32.567 35 34.5 35C36.433 35 38 33.433 38 31.5C38 29.567 36.433 28 34.5 28C32.567 28 31 29.567 31 31.5Z" class="Icon__blendForeground" style="" fill="#7A73FF"></path><g clip-path="url(#BrowserWithNoCodeIconClipPath-)" fill="none"><path fill-rule="evenodd" clip-rule="evenodd" d="M40 18.5C40 15.4624 37.5376 13 34.5 13H17.5C14.4624 13 12 15.4624 12 18.5C12 21.5376 14.4624 24 17.5 24H34.5C37.5376 24 40 21.5376 40 18.5ZM14 18.5C14 20.433 15.567 22 17.5 22C19.433 22 21 20.433 21 18.5C21 16.567 19.433 15 17.5 15C15.567 15 14 16.567 14 18.5ZM12 31.5C12 28.4624 14.4624 26 17.5 26H34.5C37.5376 26 40 28.4624 40 31.5C40 34.5376 37.5376 37 34.5 37H17.5C14.4624 37 12 34.5376 12 31.5ZM31 31.5C31 33.433 32.567 35 34.5 35C36.433 35 38 33.433 38 31.5C38 29.567 36.433 28 34.5 28C32.567 28 31 29.567 31 31.5Z" class="Icon__blendForeground" style="" fill="#CCFFFF"></path></g></svg>