<svg xmlns:xlink="http://www.w3.org/1999/xlink" class="AnimatedIcon__icon" width="96" height="96" preserveAspectRatio="xMinYMin" viewBox="0 0 96 96" xmlns="http://www.w3.org/2000/svg" data-js-controller="PricingIcon">
      <defs>
      <path id="pricingIconTag" d="M41.4 30.38l8.4 8.27A4 4 0 0 1 51 41.5V62a3 3 0 0 1-3 3H32a3 3 0 0 1-3-3V41.5a4 4 0 0 1 1.2-2.85l8.4-8.27a2 2 0 0 1 2.8 0zM40 36a3 3 0 1 0 0 6 3 3 0 0 0 0-6z"></path>
      <clipPath id="pricingClipPath">
        <use href="#pricingIconTag" style="transform-origin: 40px 39px; transform: rotate(45deg)" data-js-target-list="PricingIcon.tagBacks"></use>
      </clipPath>
    <path id="pricingIconTag" d="M41.4 30.38l8.4 8.27A4 4 0 0 1 51 41.5V62a3 3 0 0 1-3 3H32a3 3 0 0 1-3-3V41.5a4 4 0 0 1 1.2-2.85l8.4-8.27a2 2 0 0 1 2.8 0zM40 36a3 3 0 1 0 0 6 3 3 0 0 0 0-6z"></path><path id="pricingIconTag" d="M41.4 30.38l8.4 8.27A4 4 0 0 1 51 41.5V62a3 3 0 0 1-3 3H32a3 3 0 0 1-3-3V41.5a4 4 0 0 1 1.2-2.85l8.4-8.27a2 2 0 0 1 2.8 0zM40 36a3 3 0 1 0 0 6 3 3 0 0 0 0-6z"></path><path id="pricingIconTag" d="M41.4 30.38l8.4 8.27A4 4 0 0 1 51 41.5V62a3 3 0 0 1-3 3H32a3 3 0 0 1-3-3V41.5a4 4 0 0 1 1.2-2.85l8.4-8.27a2 2 0 0 1 2.8 0zM40 36a3 3 0 1 0 0 6 3 3 0 0 0 0-6z"></path><path id="pricingIconTag" d="M41.4 30.38l8.4 8.27A4 4 0 0 1 51 41.5V62a3 3 0 0 1-3 3H32a3 3 0 0 1-3-3V41.5a4 4 0 0 1 1.2-2.85l8.4-8.27a2 2 0 0 1 2.8 0zM40 36a3 3 0 1 0 0 6 3 3 0 0 0 0-6z"></path></defs>

    <use href="#pricingIconTag" fill="#80E9FF" style="transform-origin: 40px 39px; transform: rotate(45deg)" data-js-target-list="PricingIcon.tagBacks"></use>
    <use class="PricingIcon__tag" href="#pricingIconTag" fill="#7A73FF" style="transform-origin: 40px 39px;" data-js-target-list="PricingIcon.tagFronts"></use>
    <g clip-path="url(#pricingClipPath)">
      <use class="PricingIcon__tag" href="#pricingIconTag" fill="#0048E5" style="transform-origin: 40px 39px;" data-js-target-list="PricingIcon.tagFronts"></use>
    </g>
    </svg>